<mxfile host="app.diagrams.net" agent="Mozilla/5.0 (Windows NT 10.0; Win64; x64; rv:129.0) Gecko/20100101 Firefox/129.0" version="24.7.6">
  <diagram id="Ht1M8jgEwFfnCIfOTk4-" name="Page-1">
    <mxGraphModel dx="1395" dy="1472" grid="1" gridSize="10" guides="1" tooltips="1" connect="1" arrows="1" fold="1" page="1" pageScale="1" pageWidth="1169" pageHeight="827" math="0" shadow="0">
      <root>
        <mxCell id="0" />
        <mxCell id="1" parent="0" />
        <mxCell id="hBLE1oTwo_T7c2kToyoZ-21" style="edgeStyle=orthogonalEdgeStyle;rounded=0;orthogonalLoop=1;jettySize=auto;html=1;" edge="1" parent="1" source="hBLE1oTwo_T7c2kToyoZ-1" target="hBLE1oTwo_T7c2kToyoZ-2">
          <mxGeometry relative="1" as="geometry" />
        </mxCell>
        <mxCell id="hBLE1oTwo_T7c2kToyoZ-1" value="\" style="sketch=0;outlineConnect=0;fontColor=#232F3E;gradientColor=none;strokeColor=#232F3E;fillColor=#ffffff;dashed=0;verticalLabelPosition=bottom;verticalAlign=top;align=center;html=1;fontSize=12;fontStyle=0;aspect=fixed;shape=mxgraph.aws4.resourceIcon;resIcon=mxgraph.aws4.client;" vertex="1" parent="1">
          <mxGeometry x="515" y="-110" width="80" height="80" as="geometry" />
        </mxCell>
        <mxCell id="hBLE1oTwo_T7c2kToyoZ-2" value="" style="outlineConnect=0;dashed=0;verticalLabelPosition=bottom;verticalAlign=top;align=center;html=1;shape=mxgraph.aws3.cloudfront;fillColor=#F58536;gradientColor=none;" vertex="1" parent="1">
          <mxGeometry x="516.75" y="80" width="76.5" height="93" as="geometry" />
        </mxCell>
        <mxCell id="hBLE1oTwo_T7c2kToyoZ-25" style="edgeStyle=orthogonalEdgeStyle;rounded=0;orthogonalLoop=1;jettySize=auto;html=1;exitX=0.5;exitY=1;exitDx=0;exitDy=0;exitPerimeter=0;" edge="1" parent="1" source="hBLE1oTwo_T7c2kToyoZ-3" target="hBLE1oTwo_T7c2kToyoZ-4">
          <mxGeometry relative="1" as="geometry" />
        </mxCell>
        <mxCell id="hBLE1oTwo_T7c2kToyoZ-27" style="edgeStyle=orthogonalEdgeStyle;rounded=0;orthogonalLoop=1;jettySize=auto;html=1;exitX=0.5;exitY=1;exitDx=0;exitDy=0;exitPerimeter=0;" edge="1" parent="1" source="hBLE1oTwo_T7c2kToyoZ-3" target="hBLE1oTwo_T7c2kToyoZ-6">
          <mxGeometry relative="1" as="geometry" />
        </mxCell>
        <mxCell id="hBLE1oTwo_T7c2kToyoZ-3" value="" style="outlineConnect=0;dashed=0;verticalLabelPosition=bottom;verticalAlign=top;align=center;html=1;shape=mxgraph.aws3.application_load_balancer;fillColor=#F58534;gradientColor=none;" vertex="1" parent="1">
          <mxGeometry x="520.5" y="260" width="69" height="72" as="geometry" />
        </mxCell>
        <mxCell id="hBLE1oTwo_T7c2kToyoZ-4" value="" style="outlineConnect=0;dashed=0;verticalLabelPosition=bottom;verticalAlign=top;align=center;html=1;shape=mxgraph.aws3.ec2;fillColor=#F58534;gradientColor=none;" vertex="1" parent="1">
          <mxGeometry x="310" y="414" width="76.5" height="93" as="geometry" />
        </mxCell>
        <mxCell id="hBLE1oTwo_T7c2kToyoZ-5" value="" style="outlineConnect=0;dashed=0;verticalLabelPosition=bottom;verticalAlign=top;align=center;html=1;shape=mxgraph.aws3.ec2;fillColor=#F58534;gradientColor=none;" vertex="1" parent="1">
          <mxGeometry x="516.75" y="414" width="76.5" height="93" as="geometry" />
        </mxCell>
        <mxCell id="hBLE1oTwo_T7c2kToyoZ-6" value="" style="outlineConnect=0;dashed=0;verticalLabelPosition=bottom;verticalAlign=top;align=center;html=1;shape=mxgraph.aws3.ec2;fillColor=#F58534;gradientColor=none;" vertex="1" parent="1">
          <mxGeometry x="720" y="414" width="76.5" height="93" as="geometry" />
        </mxCell>
        <mxCell id="hBLE1oTwo_T7c2kToyoZ-32" style="edgeStyle=orthogonalEdgeStyle;rounded=0;orthogonalLoop=1;jettySize=auto;html=1;exitX=0.5;exitY=1;exitDx=0;exitDy=0;exitPerimeter=0;" edge="1" parent="1" source="hBLE1oTwo_T7c2kToyoZ-7" target="hBLE1oTwo_T7c2kToyoZ-10">
          <mxGeometry relative="1" as="geometry" />
        </mxCell>
        <mxCell id="hBLE1oTwo_T7c2kToyoZ-7" value="" style="sketch=0;points=[[0,0,0],[0.25,0,0],[0.5,0,0],[0.75,0,0],[1,0,0],[0,1,0],[0.25,1,0],[0.5,1,0],[0.75,1,0],[1,1,0],[0,0.25,0],[0,0.5,0],[0,0.75,0],[1,0.25,0],[1,0.5,0],[1,0.75,0]];outlineConnect=0;fontColor=#232F3E;fillColor=#C925D1;strokeColor=#ffffff;dashed=0;verticalLabelPosition=bottom;verticalAlign=top;align=center;html=1;fontSize=12;fontStyle=0;aspect=fixed;shape=mxgraph.aws4.resourceIcon;resIcon=mxgraph.aws4.rds;" vertex="1" parent="1">
          <mxGeometry x="308.5" y="620" width="78" height="78" as="geometry" />
        </mxCell>
        <mxCell id="hBLE1oTwo_T7c2kToyoZ-8" value="" style="outlineConnect=0;dashed=0;verticalLabelPosition=bottom;verticalAlign=top;align=center;html=1;shape=mxgraph.aws3.s3;fillColor=#E05243;gradientColor=none;" vertex="1" parent="1">
          <mxGeometry x="516.75" y="605" width="76.5" height="93" as="geometry" />
        </mxCell>
        <mxCell id="hBLE1oTwo_T7c2kToyoZ-9" value="" style="outlineConnect=0;dashed=0;verticalLabelPosition=bottom;verticalAlign=top;align=center;html=1;shape=mxgraph.aws3.cloudwatch;fillColor=#759C3E;gradientColor=none;" vertex="1" parent="1">
          <mxGeometry x="717" y="605" width="82.5" height="93" as="geometry" />
        </mxCell>
        <mxCell id="hBLE1oTwo_T7c2kToyoZ-10" value="" style="sketch=0;points=[[0,0,0],[0.25,0,0],[0.5,0,0],[0.75,0,0],[1,0,0],[0,1,0],[0.25,1,0],[0.5,1,0],[0.75,1,0],[1,1,0],[0,0.25,0],[0,0.5,0],[0,0.75,0],[1,0.25,0],[1,0.5,0],[1,0.75,0]];outlineConnect=0;fontColor=#232F3E;fillColor=#8C4FFF;strokeColor=#ffffff;dashed=0;verticalLabelPosition=bottom;verticalAlign=top;align=center;html=1;fontSize=12;fontStyle=0;aspect=fixed;shape=mxgraph.aws4.resourceIcon;resIcon=mxgraph.aws4.route_53;" vertex="1" parent="1">
          <mxGeometry x="308.5" y="810" width="78" height="78" as="geometry" />
        </mxCell>
        <mxCell id="hBLE1oTwo_T7c2kToyoZ-11" value="&lt;h1 style=&quot;margin-top: 0px;&quot;&gt;Scalable Web Application Architecture on AWS&lt;/h1&gt;&lt;p&gt;This diagram illustrates the architecture for deploying a scalable web application on AWS. The design ensures high availability, performance, and fault tolerance&lt;/p&gt;" style="text;html=1;whiteSpace=wrap;overflow=hidden;rounded=0;" vertex="1" parent="1">
          <mxGeometry x="308.5" y="-260" width="540" height="100" as="geometry" />
        </mxCell>
        <mxCell id="hBLE1oTwo_T7c2kToyoZ-12" value="CloudFront" style="text;html=1;align=center;verticalAlign=middle;whiteSpace=wrap;rounded=0;" vertex="1" parent="1">
          <mxGeometry x="610" y="111.5" width="60" height="30" as="geometry" />
        </mxCell>
        <mxCell id="hBLE1oTwo_T7c2kToyoZ-13" value="ALB (Load Balancer)" style="text;html=1;align=center;verticalAlign=middle;whiteSpace=wrap;rounded=0;" vertex="1" parent="1">
          <mxGeometry x="600.5" y="281" width="60" height="30" as="geometry" />
        </mxCell>
        <mxCell id="hBLE1oTwo_T7c2kToyoZ-14" value="EC2" style="text;html=1;align=center;verticalAlign=middle;whiteSpace=wrap;rounded=0;" vertex="1" parent="1">
          <mxGeometry x="250" y="445.5" width="60" height="30" as="geometry" />
        </mxCell>
        <mxCell id="hBLE1oTwo_T7c2kToyoZ-15" value="EC2" style="text;html=1;align=center;verticalAlign=middle;whiteSpace=wrap;rounded=0;" vertex="1" parent="1">
          <mxGeometry x="796.5" y="450" width="60" height="30" as="geometry" />
        </mxCell>
        <mxCell id="hBLE1oTwo_T7c2kToyoZ-16" value="CloudWatch" style="text;html=1;align=center;verticalAlign=middle;whiteSpace=wrap;rounded=0;" vertex="1" parent="1">
          <mxGeometry x="810" y="636.5" width="60" height="30" as="geometry" />
        </mxCell>
        <mxCell id="hBLE1oTwo_T7c2kToyoZ-17" value="S3" style="text;html=1;align=center;verticalAlign=middle;whiteSpace=wrap;rounded=0;" vertex="1" parent="1">
          <mxGeometry x="525" y="700" width="60" height="30" as="geometry" />
        </mxCell>
        <mxCell id="hBLE1oTwo_T7c2kToyoZ-18" value="RDS" style="text;html=1;align=center;verticalAlign=middle;whiteSpace=wrap;rounded=0;" vertex="1" parent="1">
          <mxGeometry x="248.5" y="644" width="60" height="30" as="geometry" />
        </mxCell>
        <mxCell id="hBLE1oTwo_T7c2kToyoZ-19" value="Route 53" style="text;html=1;align=center;verticalAlign=middle;whiteSpace=wrap;rounded=0;" vertex="1" parent="1">
          <mxGeometry x="400" y="834" width="60" height="30" as="geometry" />
        </mxCell>
        <mxCell id="hBLE1oTwo_T7c2kToyoZ-20" value="EC2" style="text;html=1;align=center;verticalAlign=middle;whiteSpace=wrap;rounded=0;" vertex="1" parent="1">
          <mxGeometry x="589.5" y="450" width="60" height="30" as="geometry" />
        </mxCell>
        <mxCell id="hBLE1oTwo_T7c2kToyoZ-22" value="Client" style="text;html=1;align=center;verticalAlign=middle;whiteSpace=wrap;rounded=0;" vertex="1" parent="1">
          <mxGeometry x="595" y="-85" width="60" height="30" as="geometry" />
        </mxCell>
        <mxCell id="hBLE1oTwo_T7c2kToyoZ-23" style="edgeStyle=orthogonalEdgeStyle;rounded=0;orthogonalLoop=1;jettySize=auto;html=1;exitX=0.5;exitY=1;exitDx=0;exitDy=0;exitPerimeter=0;entryX=0.5;entryY=0;entryDx=0;entryDy=0;entryPerimeter=0;" edge="1" parent="1" source="hBLE1oTwo_T7c2kToyoZ-2" target="hBLE1oTwo_T7c2kToyoZ-3">
          <mxGeometry relative="1" as="geometry" />
        </mxCell>
        <mxCell id="hBLE1oTwo_T7c2kToyoZ-28" style="edgeStyle=orthogonalEdgeStyle;rounded=0;orthogonalLoop=1;jettySize=auto;html=1;exitX=0.5;exitY=1;exitDx=0;exitDy=0;exitPerimeter=0;entryX=0.5;entryY=0;entryDx=0;entryDy=0;entryPerimeter=0;" edge="1" parent="1" source="hBLE1oTwo_T7c2kToyoZ-3" target="hBLE1oTwo_T7c2kToyoZ-5">
          <mxGeometry relative="1" as="geometry" />
        </mxCell>
        <mxCell id="hBLE1oTwo_T7c2kToyoZ-29" style="edgeStyle=orthogonalEdgeStyle;rounded=0;orthogonalLoop=1;jettySize=auto;html=1;exitX=0.5;exitY=1;exitDx=0;exitDy=0;exitPerimeter=0;entryX=0.5;entryY=0;entryDx=0;entryDy=0;entryPerimeter=0;" edge="1" parent="1" source="hBLE1oTwo_T7c2kToyoZ-4" target="hBLE1oTwo_T7c2kToyoZ-7">
          <mxGeometry relative="1" as="geometry" />
        </mxCell>
        <mxCell id="hBLE1oTwo_T7c2kToyoZ-30" style="edgeStyle=orthogonalEdgeStyle;rounded=0;orthogonalLoop=1;jettySize=auto;html=1;exitX=0.5;exitY=1;exitDx=0;exitDy=0;exitPerimeter=0;entryX=0.5;entryY=0;entryDx=0;entryDy=0;entryPerimeter=0;" edge="1" parent="1" source="hBLE1oTwo_T7c2kToyoZ-5" target="hBLE1oTwo_T7c2kToyoZ-8">
          <mxGeometry relative="1" as="geometry" />
        </mxCell>
        <mxCell id="hBLE1oTwo_T7c2kToyoZ-31" style="edgeStyle=orthogonalEdgeStyle;rounded=0;orthogonalLoop=1;jettySize=auto;html=1;exitX=0.5;exitY=1;exitDx=0;exitDy=0;exitPerimeter=0;entryX=0.5;entryY=0.05;entryDx=0;entryDy=0;entryPerimeter=0;" edge="1" parent="1" source="hBLE1oTwo_T7c2kToyoZ-6" target="hBLE1oTwo_T7c2kToyoZ-9">
          <mxGeometry relative="1" as="geometry" />
        </mxCell>
      </root>
    </mxGraphModel>
  </diagram>
</mxfile>
